PathFileType	4	(X/Y/Z)	 s08c0303.trc
DataRate	CameraRate	NumFrames	NumMarkers	Units	OrigDataRate	OrigDataStartFrame	OrigNumFrames
200	200	5	50	mm	200	1751	2000
Frame#	Time	racr			lacr			c7			jug			rlel			rdr			llel			ldr			s2			lic			ric			lasi			rasi			rpsi			lpsi			rgt			lgt			rth1			rth2			rth3			rth4			rlfc			rmfc			rsh1			rsh2			rsh3			rsh4			rlmal			rmmal			rcal			rtoe			rmt5			lth1			lth2			lth4			lth3			llfc			lmfc			llmal			lmmal			lcal			lmt5			lsh1			lsh2			lsh3			lsh4			ltoe			SBIKE			LBIKE			RBIKE			
		X1	Y1	Z1	X2	Y2	Z2	X3	Y3	Z3	X4	Y4	Z4	X5	Y5	Z5	X6	Y6	Z6	X7	Y7	Z7	X8	Y8	Z8	X9	Y9	Z9	X10	Y10	Z10	X11	Y11	Z11	X12	Y12	Z12	X13	Y13	Z13	X14	Y14	Z14	X15	Y15	Z15	X16	Y16	Z16	X17	Y17	Z17	X18	Y18	Z18	X19	Y19	Z19	X20	Y20	Z20	X21	Y21	Z21	X22	Y22	Z22	X23	Y23	Z23	X24	Y24	Z24	X25	Y25	Z25	X26	Y26	Z26	X27	Y27	Z27	X28	Y28	Z28	X29	Y29	Z29	X30	Y30	Z30	X31	Y31	Z31	X32	Y32	Z32	X33	Y33	Z33	X34	Y34	Z34	X35	Y35	Z35	X36	Y36	Z36	X37	Y37	Z37	X38	Y38	Z38	X39	Y39	Z39	X40	Y40	Z40	X41	Y41	Z41	X42	Y42	Z42	X43	Y43	Z43	X44	Y44	Z44	X45	Y45	Z45	X46	Y46	Z46	X47	Y47	Z47	X48	Y48	Z48	X49	Y49	Z49	X50	Y50	Z50	
1751	8.7550	581.635180	1368.346555	-92.699501	569.077366	1367.218455	-396.757838	551.717563	1407.299046	-239.247409	509.950170	1253.675400	-236.692831	601.037401	1116.449941	36.806536	771.809726	885.226883	-45.374369	588.658966	1104.349844	-505.723333	769.931779	893.516981	-416.855815	-34.236030	1218.962466	-214.403104	132.372917	1203.298241	-367.581493	145.074622	1194.764971	-58.196869	144.206533	1157.672504	-326.769846	154.143290	1130.109131	-87.425040	11.090886	1250.025626	-161.412983	4.831167	1261.825549	-255.286952	36.827098	1088.031048	-28.075050	74.300238	1125.183999	-410.045518	135.736823	937.809619	-19.635785	203.460249	880.205476	-20.916297	233.295755	798.944162	-33.997877	233.656360	901.487529	-29.151100	292.541760	700.656656	-51.668533	274.418489	695.013487	-163.047099	201.869750	606.118175	-21.876771	179.803470	520.315034	-41.583355	119.869910	459.368067	-47.542195	207.324750	510.316992	-69.118445	52.422748	362.695578	-56.505536	NaN	NaN	NaN	-23.869133	380.084046	-104.845899	218.743732	203.733852	-101.010270	125.787177	228.564951	-35.792120	174.817208	1047.992919	-406.817451	259.864991	1027.665380	-402.352259	276.455022	1057.037558	-387.956253	324.456531	966.359037	-406.770107	417.356896	873.044061	-381.250778	418.170114	843.870920	-272.636786	285.749332	473.864760	-397.180722	309.202926	492.432117	-309.699668	212.431525	442.561438	-362.122199	424.537798	402.024551	-418.142971	386.883068	751.134289	-408.268736	376.627897	666.649372	-393.797441	329.150955	593.023413	-400.801859	396.670501	661.983930	-360.075954	501.708497	437.555996	-346.934750	-207.249556	917.325370	-224.668406	-9.984028	83.454730	-426.322227	-12.248062	80.151196	-27.917559	
1752	8.7600	578.109357	1368.177805	-91.727384	567.080837	1367.396427	-397.837290	548.434160	1407.404626	-238.371177	508.002902	1253.424950	-236.607349	599.739844	1116.044527	36.387730	771.721427	885.206842	-45.449616	587.459622	1104.139791	-504.423938	769.774496	893.470866	-416.597704	-36.856963	1217.213424	-214.811201	129.596949	1201.397284	-368.359478	142.206330	1194.677908	-58.446145	141.934415	1155.385055	-327.383068	151.805009	1130.408199	-87.934768	7.646655	1248.840388	-162.039904	1.893650	1260.032814	-255.911985	35.549222	1087.606580	-27.552755	71.053923	1122.019732	-409.692473	137.316523	939.665326	-19.907747	206.419878	883.750867	-20.968818	237.687359	803.003374	-33.302435	236.160370	905.668167	-28.722769	297.887059	705.701912	-50.726961	280.395436	699.809007	-161.804536	205.471036	612.858016	-21.328812	181.932275	527.421863	-41.042772	120.724391	467.640356	-47.242911	209.210914	516.902410	-68.524510	51.449685	372.645880	-56.351123	NaN	NaN	NaN	-24.598762	391.798129	-104.748771	214.345399	210.425624	-101.035321	121.903836	237.205853	-35.748556	171.736753	1043.866063	-406.925269	256.467623	1022.599372	-402.632911	273.450358	1051.790136	-388.360094	320.271474	960.399955	-406.868849	412.439741	866.328751	-381.389877	413.683619	837.333684	-273.142069	289.415293	463.997892	-397.684628	312.227030	482.732133	-310.480531	216.341045	432.272529	-362.487512	428.770140	392.817385	-418.181549	384.061547	743.892963	-408.889689	375.924418	659.043553	-394.452895	330.018274	584.559050	-401.740052	396.018943	654.832830	-360.752561	505.626747	428.745107	-346.807783	-207.348205	917.154243	-223.929638	-9.998220	83.436547	-426.314174	-12.244129	80.148508	-27.903803	
1753	8.7650	574.511319	1368.045644	-90.852108	564.316018	1367.013812	-397.224123	545.128069	1407.469580	-237.573675	504.500422	1253.553136	-235.835363	598.473116	1115.674125	35.974569	771.666049	885.171342	-45.511786	586.408204	1103.961737	-502.981275	769.662960	893.368577	-416.332418	-39.588756	1215.439794	-215.038399	126.851652	1199.454506	-368.982112	139.330200	1194.510200	-58.711869	139.774734	1153.166768	-328.031969	149.607817	1130.563916	-88.281794	4.544435	1247.732160	-162.522206	-0.868570	1258.177319	-256.534655	34.273376	1087.011930	-27.044274	67.938442	1118.775083	-409.337490	138.904946	941.569681	-20.096226	209.183339	887.221914	-20.790149	242.143062	807.074849	-32.501459	238.391319	909.634639	-29.097313	303.399353	711.069007	-49.588919	286.051488	704.996410	-161.172328	209.363174	619.701381	-20.830183	184.208842	534.691692	-40.499462	121.876111	476.112373	-46.923148	211.355872	523.672427	-68.002074	50.806784	382.821363	-56.183549	NaN	NaN	NaN	-24.838337	403.533132	-104.741534	210.425505	217.589847	-100.844906	118.519579	246.105047	-35.728134	168.398882	1039.382784	-407.111367	252.858057	1016.809117	-402.408344	270.244884	1045.907427	-388.291634	315.917087	954.088076	-407.035798	407.248962	859.078253	-381.653227	408.964788	830.360049	-273.541237	292.533211	453.997717	-398.181956	314.948690	472.979111	-311.063743	220.061769	421.741033	-362.665313	432.453878	383.299735	-418.137475	381.123387	736.223636	-409.545388	375.149256	651.246975	-395.405686	330.655352	575.645683	-402.083884	394.941262	647.508145	-361.700180	509.105957	419.652521	-346.833634	-207.436138	917.047212	-223.654893	-9.998095	83.446165	-426.296103	-12.252992	80.094891	-27.920807	
1754	8.7700	570.992390	1368.125556	-89.587908	561.560771	1366.704099	-396.665485	541.785565	1407.649978	-236.729876	501.232779	1253.725661	-234.962376	597.176559	1115.328856	35.562515	772.290649	885.525777	-44.796256	585.403811	1103.801730	-501.564888	768.295531	892.093165	-414.504935	-42.096166	1213.565094	-215.342677	124.206676	1197.500081	-369.455348	136.502891	1194.198376	-59.029457	137.733658	1151.101149	-328.749773	147.468813	1130.620144	-88.564457	1.685333	1246.488854	-163.089466	-3.619553	1256.285916	-257.069684	33.106681	1086.522898	-26.551907	64.930724	1115.471010	-408.933346	140.633702	943.867286	-19.637172	211.954308	890.861049	-20.541218	246.510176	811.299237	-31.630522	240.491921	913.672122	-29.884688	308.960502	716.548008	-48.507171	291.872295	710.330939	-160.308836	213.345238	626.784684	-20.500662	187.030351	542.244795	-39.639140	123.388877	484.821415	-46.629546	214.491792	531.251721	-66.586747	50.521373	393.153592	-56.060287	NaN	NaN	NaN	-24.668764	415.261105	-104.726537	207.024643	224.795836	-100.841046	115.654059	255.256488	-35.668384	157.621375	1036.789988	-413.373839	249.332849	1010.865683	-402.922138	267.232372	1039.772844	-389.007915	311.388869	947.151838	-407.310542	401.753554	851.303577	-381.701701	403.913647	822.982134	-274.180344	295.049895	444.101517	-399.215608	317.191965	463.224140	-311.485837	223.076057	411.492089	-363.390261	435.583931	373.534543	-418.129109	377.745284	727.957405	-409.602588	373.662669	642.924709	-395.873009	330.749113	566.447059	-402.734433	393.535785	639.624758	-362.210442	512.024320	410.323402	-346.771556	-202.880052	919.971471	-223.721432	-9.995404	83.440251	-426.294809	-12.268288	80.109680	-27.874580	
1755	8.7750	567.325906	1367.995544	-88.353037	558.800227	1366.419188	-396.110115	538.398829	1407.721783	-235.969945	497.834872	1253.810494	-234.307118	595.927292	1115.030866	35.153646	772.058150	885.344143	-44.942855	584.613627	1103.681674	-500.062787	769.473542	893.048449	-415.793646	-44.564979	1211.718211	-215.579230	121.820923	1195.753474	-370.089852	133.817799	1193.813257	-59.298112	135.817353	1149.271700	-329.569703	145.339581	1130.599850	-89.035508	-1.285337	1245.745289	-163.917698	-6.335920	1254.413543	-257.600264	31.873347	1086.020803	-26.018456	62.063546	1112.083299	-408.536816	142.164538	945.880757	-19.293647	214.733930	894.576029	-20.187413	250.880812	815.695454	-30.607053	242.669051	917.926754	-29.620244	314.601311	722.260846	-47.627655	297.694477	715.924968	-159.508215	217.553511	634.108738	-20.093377	189.859462	549.880572	-39.057747	125.233807	493.704313	-46.393483	216.905038	538.102754	-66.439550	50.699520	403.568395	-55.993977	72.826678	416.365815	-141.693967	-24.177051	427.022717	-104.748292	204.158303	232.649375	-100.753136	113.344983	264.629795	-35.581385	162.364456	1029.972671	-407.438668	245.786835	1004.470243	-403.402987	264.191060	1033.162204	-389.873027	306.636216	939.589828	-407.604203	396.072223	843.235887	-382.155975	398.035010	815.113588	-276.636416	297.042815	433.823822	-399.708935	317.978068	451.997460	-314.415805	225.493279	400.581858	-363.506965	438.154822	363.592210	-418.126323	374.114431	719.368037	-410.131128	371.891413	634.178104	-396.377638	330.363587	557.011163	-403.322618	391.707499	631.341244	-362.746687	514.431953	400.657190	-346.742015	-203.085690	919.995574	-223.995258	-10.025566	83.402225	-426.286059	-12.272449	80.085796	-27.852004	
